<svg width="57" height="56" viewBox="0 0 57 56" fill="none" xmlns="http://www.w3.org/2000/svg">
	<path d="M22.3145 34.668C13.0656 34.668 5.16602 36.0967 5.16602 41.8071C5.16602 47.522 13.0153 48.9999 22.3145 48.9999C31.5633 48.9999 39.4629 47.5712 39.4629 41.8608C39.4629 36.1459 31.6136 34.668 22.3145 34.668Z" fill="#37B866" />
	<path opacity="0.4" d="M22.3139 29.2246C28.613 29.2246 33.6609 24.2811 33.6609 18.1123C33.6609 11.9435 28.613 7 22.3139 7C16.017 7 10.9668 11.9435 10.9668 18.1123C10.9668 24.2811 16.017 29.2246 22.3139 29.2246Z" fill="#37B866" />
	<path opacity="0.4" d="M38.2378 18.3132C38.2378 21.4546 37.2743 24.3858 35.5848 26.8207C35.409 27.0711 35.5643 27.4088 35.8702 27.4624C36.2949 27.5317 36.731 27.5742 37.1762 27.5831C41.6054 27.6972 45.5803 24.9046 46.6785 20.6989C48.3063 14.4586 43.5301 8.85547 37.4456 8.85547C36.7858 8.85547 36.1533 8.92254 35.5369 9.04552C35.4524 9.06341 35.3611 9.10365 35.3154 9.1752C35.2561 9.26687 35.2995 9.38537 35.3588 9.46363C37.1876 11.9745 38.2378 15.031 38.2378 18.3132Z" fill="#37B866" />
	<path d="M51.3171 35.3948C50.5066 33.7022 48.5499 32.5418 45.5728 31.9716C44.1686 31.6362 40.365 31.16 36.8284 31.2271C36.7759 31.2338 36.7463 31.2696 36.7417 31.2919C36.7348 31.3277 36.7508 31.3814 36.8193 31.4194C38.454 32.2109 44.7714 35.6541 43.9769 42.9162C43.9426 43.2337 44.2006 43.502 44.5225 43.4573C46.0773 43.2404 50.0773 42.3975 51.3171 39.7771C52.0043 38.3908 52.0043 36.781 51.3171 35.3948Z" fill="#37B866" />
</svg>
