<svg width="57" height="56" viewBox="0 0 57 56" fill="none" xmlns="http://www.w3.org/2000/svg">
	<ellipse opacity="0.4" cx="28.1667" cy="49.3333" rx="11.6667" ry="2.33334" fill="#37B866" />
	<path d="M46.0555 20.7778C46.0555 34.1111 30.5 43 28.2778 43C26.0555 43 10.5 34.1111 10.5 20.7778C10.5 10.9594 18.4594 3 28.2778 3C38.0962 3 46.0555 10.9594 46.0555 20.7778Z" fill="#37B866" />
	<circle cx="28.2765" cy="20.7784" r="4.44444" fill="white" />
	<path d="M50.5 33C50.5 38.5228 46.0228 43 40.5 43C34.9771 43 30.5 38.5228 30.5 33C30.5 27.4771 34.9771 23 40.5 23C46.0228 23 50.5 27.4771 50.5 33Z" fill="white" />
	<path fill-rule="evenodd" clip-rule="evenodd" d="M37.1671 32.9985C37.1671 31.1575 38.6595 29.6651 40.5004 29.6651C42.3414 29.6651 43.8338 31.1575 43.8338 32.9985C43.8338 34.8394 42.3414 36.3318 40.5004 36.3318C38.6595 36.3318 37.1671 34.8394 37.1671 32.9985ZM40.5004 25.2207C36.2049 25.2207 32.7227 28.7029 32.7227 32.9985C32.7227 37.294 36.2049 40.7762 40.5004 40.7762C41.8383 40.7762 43.0974 40.4384 44.1968 39.8434L46.7044 42.351C47.5723 43.2189 48.9793 43.2189 49.8471 42.351C50.715 41.4832 50.715 40.0762 49.8471 39.2083L47.3413 36.7025C47.9388 35.6012 48.2782 34.3395 48.2782 32.9985C48.2782 28.7029 44.796 25.2207 40.5004 25.2207Z" fill="#37B866" />
</svg>
