<svg width="57" height="56" viewBox="0 0 57 56" fill="none" xmlns="http://www.w3.org/2000/svg">
	<path fill-rule="evenodd" clip-rule="evenodd" d="M36.0659 11.053C36.0659 16.2353 40.2731 20.4364 45.463 20.4364C46.0345 20.4336 46.6045 20.3787 47.166 20.2725V38.8754C47.166 46.7018 42.5495 51.332 34.7117 51.332H17.6409C9.78253 51.332 5.16602 46.7018 5.16602 38.8754V21.8296C5.16602 14.0033 9.78253 9.33203 17.6409 9.33203H36.23C36.1197 9.89904 36.0647 10.4754 36.0659 11.053ZM31.1826 34.7574L37.8509 26.1525V26.1115C38.4218 25.3445 38.2761 24.2628 37.5226 23.6735C37.1579 23.392 36.6945 23.2701 36.2382 23.3357C35.782 23.4014 35.3718 23.6489 35.1015 24.0218L29.4796 31.254L23.0781 26.214C22.7126 25.9293 22.2477 25.8035 21.7882 25.8652C21.3288 25.9269 20.9136 26.1708 20.6365 26.5418L13.7425 35.4335C13.5001 35.7355 13.3697 36.1119 13.3731 36.4989C13.3331 37.281 13.8271 37.9915 14.5749 38.2276C15.3227 38.4636 16.1359 38.1658 16.5534 37.5028L22.3189 30.0452L28.7205 35.0647C29.0846 35.3583 29.5526 35.4913 30.0169 35.4334C30.4813 35.3754 30.9021 35.1314 31.1826 34.7574Z" fill="#37B866" />
	<ellipse opacity="0.4" cx="45.9993" cy="10.4993" rx="5.83333" ry="5.83333" fill="#37B866" />
</svg>
