<svg width="32" height="32" viewBox="0 0 32 32" fill="none" xmlns="http://www.w3.org/2000/svg">
<path d="M0 15.3599C0 8.11922 0 4.49883 2.24941 2.24942C4.49884 0 8.11923 0 15.36 0H16.64C23.8808 0 27.5012 0 29.7505 2.24942C32 4.49883 32 8.11922 32 15.3599V16.6399C32 23.8807 32 27.5011 29.7505 29.7506C27.5012 31.9999 23.8808 31.9999 16.64 31.9999H15.36C8.11923 31.9999 4.49884 31.9999 2.24941 29.7506C0 27.5011 0 23.8807 0 16.6399V15.3599Z" fill="#0077FF"/>
<path d="M17.0251 23.0543C9.73174 23.0543 5.57177 18.0543 5.39844 9.73438H9.05176C9.17176 15.841 11.865 18.4277 13.9984 18.961V9.73438H17.4384V15.001C19.5451 14.7743 21.7582 12.3744 22.5048 9.73438H25.945C25.3716 12.9877 22.9716 15.3877 21.265 16.3743C22.9716 17.1743 25.7051 19.2677 26.7451 23.0543H22.9583C22.145 20.521 20.1184 18.561 17.4384 18.2943V23.0543H17.0251Z" fill="white"/>
</svg>
