<svg width="32" height="32" viewBox="0 0 32 32" fill="none" xmlns="http://www.w3.org/2000/svg">
<path d="M0 16C0 8.45753 0 4.68629 2.34315 2.34315C4.68629 0 8.45753 0 16 0C23.5425 0 27.3137 0 29.6569 2.34315C32 4.68629 32 8.45753 32 16C32 23.5425 32 27.3137 29.6569 29.6569C27.3137 32 23.5425 32 16 32C8.45753 32 4.68629 32 2.34315 29.6569C0 27.3137 0 23.5425 0 16Z" fill="#EB722E"/>
<path d="M16.0741 8.1818C17.3951 8.1818 18.4696 9.25631 18.4696 10.5773C18.4696 11.8972 17.3948 12.9717 16.0741 12.9717C14.754 12.9717 13.6792 11.8972 13.6792 10.5773C13.6789 9.25603 14.7543 8.1818 16.0741 8.1818ZM16.0741 16.3608C19.265 16.3608 21.8599 13.7667 21.8599 10.5773C21.8599 7.38617 19.2653 4.79102 16.0741 4.79102C12.8836 4.79102 10.2884 7.38645 10.2884 10.5773C10.2884 13.7667 12.8836 16.3608 16.0741 16.3608ZM18.4148 21.08C19.605 20.809 20.7408 20.3387 21.7743 19.689C22.1547 19.4496 22.4245 19.0689 22.5243 18.6306C22.6241 18.1924 22.5456 17.7324 22.3063 17.3519C22.1879 17.1634 22.0335 17 21.8519 16.8711C21.6703 16.7423 21.4652 16.6505 21.2481 16.601C21.031 16.5515 20.8063 16.5453 20.5868 16.5827C20.3673 16.6202 20.1574 16.7005 19.969 16.8191C17.5987 18.3093 14.548 18.3082 12.1796 16.8191C11.9912 16.7005 11.7813 16.6201 11.5618 16.5827C11.3424 16.5452 11.1177 16.5514 10.9006 16.6009C10.6835 16.6504 10.4783 16.7422 10.2968 16.8711C10.1152 16.9999 9.96089 17.1634 9.84256 17.3519C9.60313 17.7323 9.52458 18.1922 9.62419 18.6305C9.72379 19.0687 9.99341 19.4495 10.3737 19.689C11.4071 20.3384 12.5427 20.8087 13.7327 21.08L10.4983 24.3149C10.1805 24.6329 10.002 25.0641 10.0021 25.5136C10.0021 25.9632 10.1808 26.3943 10.4988 26.7122C10.8167 27.03 11.2479 27.2086 11.6975 27.2085C12.1471 27.2084 12.5782 27.0297 12.896 26.7118L16.0736 23.5337L19.2531 26.7121C19.4103 26.8695 19.597 26.9944 19.8025 27.0796C20.008 27.1648 20.2283 27.2087 20.4508 27.2087C20.6733 27.2087 20.8936 27.1648 21.0991 27.0796C21.3046 26.9944 21.4914 26.8695 21.6486 26.7121C21.8062 26.5549 21.9313 26.3681 22.0167 26.1625C22.102 25.9568 22.146 25.7364 22.146 25.5138C22.146 25.2911 22.102 25.0707 22.0167 24.865C21.9313 24.6594 21.8062 24.4727 21.6486 24.3155L18.4148 21.08Z" fill="white"/>
</svg>
