<svg width="57" height="56" viewBox="0 0 57 56" fill="none" xmlns="http://www.w3.org/2000/svg">
<path opacity="0.4" fill-rule="evenodd" clip-rule="evenodd" d="M42.0364 3.14754C42.4874 2.36633 42.2197 1.3674 41.4385 0.916363C40.6573 0.465331 39.6584 0.732994 39.2073 1.51421L14.9535 43.5231C14.5024 44.3043 14.7701 45.3033 15.5513 45.7543C16.3325 46.2053 17.3315 45.9377 17.7825 45.1565L18.8332 43.3366C21.2936 44.5279 24.0068 45.2785 26.8682 45.4867V50.8678H23.8352C22.9332 50.8678 22.2019 51.5991 22.2019 52.5011C22.2019 53.4032 22.9332 54.1345 23.8352 54.1345H33.1686C34.0706 54.1345 34.8019 53.4032 34.8019 52.5011C34.8019 51.5991 34.0706 50.8678 33.1686 50.8678H30.1349V45.4868C41.6404 44.6506 50.715 35.0513 50.715 23.3325C50.715 15.6926 46.8573 8.95529 40.9901 4.95966L42.0364 3.14754ZM39.3515 7.79778L20.4716 40.4988C22.9083 41.6409 25.6287 42.2792 28.5016 42.2792C38.9656 42.2792 47.4483 33.7965 47.4483 23.3325C47.4483 16.9061 44.2497 11.2254 39.3515 7.79778Z" fill="#37B866"/>
<ellipse cx="28.5013" cy="23.3333" rx="16.3333" ry="16.3333" fill="#37B866"/>
<path fill-rule="evenodd" clip-rule="evenodd" d="M36.3695 19.4223C37.1368 20.0431 37.2146 21.1215 36.5432 21.8309L29.3637 29.4171C28.7132 30.1045 27.5926 30.1965 26.8211 29.6259L21.6929 25.8328C20.8968 25.244 20.7677 24.1698 21.4046 23.4337C22.0416 22.6976 23.2033 22.5782 23.9995 23.1671L27.7483 25.9399L33.7645 19.5829C34.4359 18.8735 35.6022 18.8016 36.3695 19.4223Z" fill="white"/>
</svg>
