<svg width="32" height="32" viewBox="0 0 32 32" fill="none" xmlns="http://www.w3.org/2000/svg">
<rect width="32" height="32" rx="8" fill="url(#paint0_linear_4618_3370)"/>
<path d="M5.31717 15.9076C7.46552 14.7509 9.86367 13.7856 12.1044 12.8152C15.9593 11.2259 19.8295 9.66415 23.7388 8.21016C24.4994 7.96242 25.866 7.72013 26 8.82189C25.9266 10.3814 25.6248 11.9318 25.4177 13.4822C24.8922 16.8917 24.2848 20.2894 23.6925 23.6877C23.4884 24.8196 22.0377 25.4056 21.1095 24.6812C18.8788 23.2083 16.6308 21.7499 14.4286 20.2429C13.7072 19.5264 14.3761 18.4974 15.0204 17.9858C16.8577 16.2159 18.8062 14.7122 20.5475 12.8509C21.0172 11.7422 19.6294 12.6766 19.1716 12.9629C16.6563 14.6572 14.2026 16.4548 11.5507 17.9439C10.1961 18.6727 8.61728 18.0498 7.26329 17.6431C6.04927 17.1518 4.27028 16.6569 5.31705 15.9077L5.31717 15.9076Z" fill="white"/>
<defs>
<linearGradient id="paint0_linear_4618_3370" x1="12.0019" y1="1.3344" x2="4.00187" y2="20" gradientUnits="userSpaceOnUse">
<stop stop-color="#37AEE2"/>
<stop offset="1" stop-color="#1E96C8"/>
</linearGradient>
</defs>
</svg>
